<svg width="78" height="15" viewBox="0 0 78 15" fill="none" xmlns="http://www.w3.org/2000/svg">
<path d="M13.667 14.5004V1.81484H21.5881V3.51123H15.636V7.52909H21.0863V9.19075H15.636V14.5004H13.667ZM22.9147 2.80802C22.9147 2.20204 23.4061 1.71761 24.0138 1.71761C24.6198 1.71761 25.1129 2.20204 25.1129 2.80802C25.1129 3.40532 24.6215 3.89843 24.0138 3.89843C23.4061 3.89843 22.9147 3.40705 22.9147 2.80802ZM23.064 5.25277H24.9636V14.5004H23.064V5.25277ZM29.6551 3.06326V5.25277H31.4123V6.75642H29.6551V11.8543C29.6551 12.6547 30.0058 13.0141 30.7802 13.0141C30.973 13.0141 31.282 12.9968 31.4036 12.9707V14.4744C31.1935 14.5265 30.7716 14.5629 30.3479 14.5629C28.4761 14.5629 27.7451 13.851 27.7451 12.0661V6.75642H26.3995V5.25277H27.7451V3.06326H29.6551ZM33.0062 5.25277H34.8172V6.79983H34.8606C35.3624 5.74415 36.3469 5.09476 37.7707 5.09476C39.8109 5.09476 40.9794 6.39527 40.9794 8.51358V14.5004H39.0712V8.88342C39.0712 7.49436 38.4201 6.73038 37.1022 6.73038C35.7652 6.73038 34.904 7.68015 34.904 9.11262V14.5022H33.0045V5.25277H33.0062ZM50.5587 11.7831C50.2948 13.4708 48.6956 14.6758 46.5773 14.6758C43.8617 14.6758 42.2174 12.8388 42.2174 9.92001C42.2174 7.01861 43.8878 5.08434 46.4992 5.08434C49.0655 5.08434 50.6664 6.89533 50.6664 9.69949V10.3506H44.1343V10.4652C44.1343 12.0731 45.1014 13.1374 46.6225 13.1374C47.7042 13.1374 48.5046 12.5922 48.7581 11.7831H50.5587ZM44.1413 9.02406H48.7651C48.7217 7.60896 47.824 6.61578 46.4975 6.61578C45.1692 6.61578 44.2368 7.62632 44.1413 9.02406ZM55.5159 5.08608C57.669 5.08608 59.0667 6.28241 59.1292 7.98748H57.3443C57.2384 7.09153 56.5803 6.52896 55.5159 6.52896C54.488 6.52896 53.8022 7.03076 53.8022 7.7687C53.8022 8.34863 54.2241 8.74451 55.226 8.97371L56.7296 9.31577C58.6205 9.75506 59.341 10.493 59.341 11.83C59.341 13.5177 57.7679 14.6775 55.5871 14.6775C53.2743 14.6775 51.8853 13.5437 51.7099 11.7848H53.5903C53.7657 12.752 54.4255 13.226 55.5854 13.226C56.7279 13.226 57.4311 12.752 57.4311 11.9949C57.4311 11.3976 57.089 11.0451 56.0768 10.816L54.5731 10.4652C52.8142 10.0606 51.9443 9.2168 51.9443 7.87114C51.9478 6.2199 53.3889 5.08608 55.5159 5.08608ZM64.1038 5.08608C66.2568 5.08608 67.6546 6.28241 67.7171 7.98748H65.9321C65.8262 7.09153 65.1682 6.52896 64.1038 6.52896C63.0759 6.52896 62.39 7.03076 62.39 7.7687C62.39 8.34863 62.812 8.74451 63.8138 8.97371L65.3175 9.31577C67.2083 9.75506 67.9289 10.493 67.9289 11.83C67.9289 13.5177 66.3558 14.6775 64.175 14.6775C61.8622 14.6775 60.4731 13.5437 60.2978 11.7848H62.1782C62.3536 12.752 63.0134 13.226 64.1732 13.226C65.3157 13.226 66.019 12.752 66.019 11.9949C66.019 11.3976 65.6769 11.0451 64.6646 10.816L63.161 10.4652C61.4021 10.0606 60.5322 9.2168 60.5322 7.87114C60.5339 6.2199 61.9768 5.08608 64.1038 5.08608ZM74.3464 14.5126H72.6153V10.7448H69.028V9.03101H72.6153V5.26492H74.3464V9.03101H77.9423V10.7448H74.3464V14.5126ZM7.63676 3.05458C8.11773 2.47291 8.44068 1.66378 8.35213 0.859863C7.66107 0.887644 6.82416 1.31999 6.32757 1.90166C5.88308 2.41561 5.4924 3.24036 5.59832 4.02866C6.36925 4.08769 7.15754 3.63625 7.63676 3.05458ZM8.33477 4.18145C7.20268 4.09811 6.24249 4.81348 5.70771 4.81348C5.16424 4.81348 4.32559 4.19882 3.43833 4.21618C2.27152 4.23354 1.19673 4.89508 0.594229 5.94035C-0.617726 8.04304 0.285163 11.1597 1.46586 12.8666C2.04406 13.7 2.73165 14.6411 3.63627 14.6063C4.50617 14.5716 4.83607 14.0438 5.88828 14.0438C6.9405 14.0438 7.23741 14.6063 8.15766 14.5907C9.09528 14.5734 9.6891 13.7399 10.2621 12.9013C10.9254 11.9341 11.198 10.9965 11.2136 10.9462C11.1928 10.9375 9.38698 10.2447 9.36962 8.16458C9.35399 6.42478 10.7899 5.58961 10.8542 5.54794C10.0381 4.3464 8.77927 4.21444 8.33477 4.18145Z" fill="black"/>
</svg>
