<svg width="68" height="15" viewBox="0 0 68 15" fill="none" xmlns="http://www.w3.org/2000/svg">
<path d="M20.7099 11.041H15.8198L14.6469 14.5096H12.575L17.2069 1.67843H19.3579L23.9898 14.5096H21.8828L20.7099 11.041ZM16.3272 9.44105H20.2024L18.2903 3.81227H18.2376L16.3272 9.44105ZM25.082 5.15405H26.9133V6.74521H26.9572C27.268 5.65106 28.1038 5.00301 29.2065 5.00301C29.4822 5.00301 29.7227 5.04691 29.8649 5.07501V6.86288C29.7139 6.80141 29.3768 6.75575 29.0028 6.75575C27.7667 6.75575 27.0029 7.58294 27.0029 8.90715V14.5096H25.082V5.15405ZM36.8884 8.37325C36.6935 7.37746 35.9455 6.58539 34.6936 6.58539C33.2081 6.58539 32.2318 7.82179 32.2318 9.83094C32.2318 11.8858 33.2186 13.0765 34.7129 13.0765C35.8946 13.0765 36.6689 12.4267 36.8902 11.3431H38.7391C38.5336 13.3347 36.9428 14.687 34.6936 14.687C32.0176 14.687 30.2758 12.8552 30.2758 9.8327C30.2758 6.86288 32.0176 4.9872 34.676 4.9872C37.0851 4.9872 38.5512 6.53446 38.7215 8.37501L36.8884 8.37325ZM39.7259 11.8506C39.7259 10.2138 40.9796 9.20923 43.2025 9.08453L45.7625 8.9335V8.21343C45.7625 7.17373 45.0602 6.55026 43.8873 6.55026C42.7758 6.55026 42.0822 7.08416 41.9137 7.92014H40.0999C40.207 6.23063 41.6468 4.98545 43.9575 4.98545C46.2243 4.98545 47.6729 6.18496 47.6729 8.0624V14.5096H45.8328V12.9711H45.7889C45.2463 14.0108 44.0646 14.6694 42.8373 14.6694C41.0059 14.6694 39.7259 13.5314 39.7259 11.8506ZM45.7625 11.0059V10.2682L43.4606 10.4105C42.314 10.4913 41.6643 10.9971 41.6643 11.7979C41.6643 12.6164 42.3403 13.1503 43.371 13.1503C44.7125 13.1485 45.7625 12.2247 45.7625 11.0059ZM49.0232 9.8327C49.0232 6.88044 50.5876 5.00476 52.9352 5.00476C54.2767 5.00476 55.3443 5.68092 55.8693 6.71184H55.9044V1.67843H57.8341V14.5096H55.9658V12.9184H55.9307C55.3794 13.9845 54.3136 14.6694 52.9528 14.6694C50.5876 14.6694 49.0232 12.7832 49.0232 9.8327ZM50.988 9.8327C50.988 11.8067 51.9396 13.0431 53.4602 13.0431C54.9351 13.0431 55.9219 11.7892 55.9219 9.8327C55.9219 7.8938 54.9351 6.62227 53.4602 6.62227C51.9396 6.62227 50.988 7.86745 50.988 9.8327ZM67.6529 11.7611C67.386 13.4681 65.7688 14.687 63.6267 14.687C60.8805 14.687 59.2177 12.8289 59.2177 9.8766C59.2177 6.94191 60.9068 4.98545 63.5477 4.98545C66.1428 4.98545 67.7617 6.81721 67.7617 9.65356V10.3122H61.1562V10.4281C61.1562 12.0544 62.1342 13.1309 63.6723 13.1309C64.7662 13.1309 65.5739 12.5795 65.832 11.7611C65.8303 11.7611 67.6529 11.7611 67.6529 11.7611ZM61.1632 8.96862H65.8391C65.7952 7.53728 64.8874 6.5327 63.5459 6.5327C62.2044 6.5327 61.2615 7.55484 61.1632 8.96862ZM7.72703 2.93063C8.20638 2.33 8.53297 1.52388 8.44693 0.700195C7.74459 0.73532 6.88773 1.16385 6.39082 1.76448C5.94483 2.27906 5.55152 3.11855 5.65336 3.90886C6.44174 3.97736 7.23012 3.51371 7.72703 2.93063ZM8.43816 4.06166C7.29333 3.99316 6.31883 4.71147 5.77276 4.71147C5.22493 4.71147 4.38738 4.09503 3.48311 4.11259C2.30493 4.13015 1.21102 4.79577 0.612276 5.85655C-0.618584 7.9781 0.287441 11.1253 1.48494 12.8517C2.06613 13.707 2.76672 14.6483 3.68855 14.6132C4.56121 14.5798 4.90185 14.0477 5.96239 14.0477C7.02117 14.0477 7.32845 14.6132 8.25203 14.5956C9.20898 14.5781 9.80773 13.7404 10.3889 12.8851C11.0561 11.9103 11.3283 10.969 11.3459 10.9181C11.3283 10.9005 9.50045 10.1998 9.48289 8.09576C9.46533 6.33425 10.9192 5.49651 10.9859 5.44383C10.1642 4.23377 8.88239 4.09678 8.43816 4.06166Z" fill="black"/>
</svg>
