<svg width="59" height="15" viewBox="0 0 59 15" fill="none" xmlns="http://www.w3.org/2000/svg">
<path d="M24.7387 14.5117V5.15572H24.6778L20.8458 14.5117H19.384L15.5398 5.15572H15.4789V14.5117H13.6813V1.79926H15.9627L20.0766 11.9295H20.148L24.2532 1.79926H26.5433V14.5117H24.7387ZM36.4818 14.5117H34.6581V12.944H34.6146C34.1029 14.0541 33.1615 14.6787 31.7432 14.6787C29.7262 14.6787 28.4924 13.3668 28.4924 11.2422V5.24272H30.3962V10.8716C30.3962 12.281 31.0662 13.0379 32.3784 13.0379C33.7532 13.0379 34.5815 12.0861 34.5815 10.6419V5.24272H36.4853L36.4818 14.5117ZM41.6973 5.07568C43.8552 5.07568 45.2561 6.27454 45.3188 7.98322H43.5298C43.4237 7.08538 42.7641 6.52162 41.6973 6.52162C40.6671 6.52162 39.9797 7.02448 39.9797 7.76398C39.9797 8.34514 40.4026 8.74186 41.4067 8.97154L42.9138 9.31432C44.8089 9.75454 45.5311 10.494 45.5311 11.8338C45.5311 13.5251 43.9544 14.6874 41.7687 14.6874C39.4507 14.6874 38.0585 13.5512 37.8827 11.7886H39.7692C39.9449 12.7578 40.6062 13.2328 41.7687 13.2328C42.9138 13.2328 43.6186 12.7578 43.6186 11.9991C43.6186 11.4006 43.2757 11.0474 42.2612 10.8177L40.7541 10.4662C38.9913 10.0608 38.1194 9.21514 38.1194 7.86664C38.1194 6.2119 39.5655 5.07568 41.6973 5.07568ZM46.8606 2.80324C46.8484 2.1925 47.334 1.6879 47.9448 1.67572C48.5556 1.66354 49.0603 2.149 49.0725 2.75974C49.0846 3.37048 48.5991 3.87508 47.9883 3.88726C47.9796 3.88726 47.9709 3.88726 47.9622 3.88726C47.3583 3.89074 46.8658 3.40702 46.8606 2.80324ZM47.0103 5.24272H48.9141V14.51H47.0103V5.24272ZM56.947 8.43214C56.7539 7.44556 56.0125 6.66082 54.7717 6.66082C53.2995 6.66082 52.3319 7.88578 52.3319 9.87634C52.3319 11.9121 53.3099 13.0919 54.7909 13.0919C55.9621 13.0919 56.7295 12.4481 56.9488 11.3745H58.7812C58.5776 13.3476 57.001 14.6874 54.7717 14.6874C52.1196 14.6874 50.3933 12.8726 50.3933 9.87808C50.3933 6.93574 52.1196 5.07742 54.7543 5.07742C57.1419 5.07742 58.595 6.61036 58.7638 8.43388L56.947 8.43214ZM7.63741 3.03988C8.15252 2.42392 8.40833 1.63222 8.35091 0.830078C7.56084 0.904898 6.82994 1.28248 6.31309 1.88452C5.87107 2.39434 5.48125 3.22606 5.58219 4.00906C6.36355 4.07692 7.14492 3.61756 7.63741 3.03988ZM8.34046 4.16044C7.20583 4.09258 6.24 4.80424 5.69878 4.80424C5.15583 4.80424 4.32574 4.1935 3.42951 4.2109C2.24093 4.24048 1.1585 4.8982 0.584225 5.93872C-0.635681 8.04064 0.262281 11.1587 1.44912 12.8691C2.02514 13.7165 2.7195 14.6492 3.63312 14.6144C4.49802 14.5813 4.83563 14.0541 5.88673 14.0541C6.93609 14.0541 7.24063 14.6144 8.156 14.597C9.10443 14.5796 9.69785 13.7496 10.2739 12.9022C10.6828 12.3019 11.0013 11.6459 11.2223 10.9534C11.2049 10.936 9.39331 10.2417 9.37591 8.15722C9.3585 6.412 10.7994 5.58202 10.8655 5.52982C10.0529 4.33096 8.78248 4.19524 8.34046 4.16044Z" fill="black"/>
</svg>
